<?xml version="1.0" encoding="UTF-8" standalone="no"?>
<svg
   xmlns:dc="http://purl.org/dc/elements/1.1/"
   xmlns:cc="http://creativecommons.org/ns#"
   xmlns:rdf="http://www.w3.org/1999/02/22-rdf-syntax-ns#"
   xmlns:svg="http://www.w3.org/2000/svg"
   xmlns="http://www.w3.org/2000/svg"
   xmlns:sodipodi="http://sodipodi.sourceforge.net/DTD/sodipodi-0.dtd"
   xmlns:inkscape="http://www.inkscape.org/namespaces/inkscape"
   aria-hidden="true"
   focusable="false"
   data-prefix="fas"
   data-icon="circle"
   class="svg-inline--fa fa-circle fa-w-16"
   role="img"
   viewBox="0 0 512 512"
   version="1.1"
   id="svg4"
   sodipodi:docname="circle-solid.svg"
   inkscape:version="0.92.4 (5da689c313, 2019-01-14)">
  <metadata
     id="metadata10">
    <rdf:RDF>
      <cc:Work
         rdf:about="">
        <dc:format>image/svg+xml</dc:format>
        <dc:type
           rdf:resource="http://purl.org/dc/dcmitype/StillImage" />
      </cc:Work>
    </rdf:RDF>
  </metadata>
  <defs
     id="defs8" />
  <sodipodi:namedview
     pagecolor="#ffffff"
     bordercolor="#666666"
     borderopacity="1"
     objecttolerance="10"
     gridtolerance="10"
     guidetolerance="10"
     inkscape:pageopacity="0"
     inkscape:pageshadow="2"
     inkscape:window-width="1920"
     inkscape:window-height="1017"
     id="namedview6"
     showgrid="false"
     inkscape:zoom="3.6875"
     inkscape:cx="135.89573"
     inkscape:cy="393.32313"
     inkscape:window-x="-8"
     inkscape:window-y="-8"
     inkscape:window-maximized="1"
     inkscape:current-layer="svg4" />
  <path
     fill="currentColor"
     d="M256 8C119 8 8 119 8 256s111 248 248 248 248-111 248-248S393 8 256 8z"
     id="path2" />
  <path
     style="fill:#efbf42;fill-opacity:1;stroke:#579c87;stroke-width:8;stroke-miterlimit:4;stroke-dasharray:none;stroke-opacity:1;stroke-dashoffset:0"
     d="M 233.22034,502.0273 C 195.60324,496.55804 172.38477,489.82799 146.68376,476.94405 121.46969,464.30421 105.31588,452.72322 84.066428,432.05244 47.312597,396.29948 24.73882,354.62856 12.788702,300.47458 8.0057448,278.79979 9.1249573,226.23017 14.867192,202.84746 26.763533,154.40487 45.962774,119.11185 79.016825,84.924325 113.31051,49.454657 148.46793,29.254402 199.40861,15.751306 c 18.00592,-4.772919 25.4501,-5.526431 55.50664,-5.618476 29.20425,-0.08943 37.96272,0.691631 55.20037,4.922676 49.87956,12.243107 88.24644,34.060487 122.86755,69.868819 34.23019,35.403995 54.80556,74.739975 66.22089,126.601095 3.6857,16.74455 3.65359,71.80429 -0.0519,88.94916 -11.57494,53.55602 -34.44122,95.80197 -71.21862,131.57786 -34.69822,33.75331 -70.49908,53.42472 -117.69628,64.67033 -17.84537,4.25196 -62.90903,7.35572 -77.01695,5.30453 z"
     id="path817"
     inkscape:connector-curvature="0" />
</svg>
